<?xml version="1.0" encoding="utf-8"?>
<!-- Generator: Adobe Illustrator 26.2.1, SVG Export Plug-In . SVG Version: 6.00 Build 0)  -->
<svg version="1.1" id="Layer_1" xmlns="http://www.w3.org/2000/svg" xmlns:xlink="http://www.w3.org/1999/xlink" x="0px" y="0px"
	 width="398.533px" height="111.541px" viewBox="0 0 398.533 111.541" style="enable-background:new 0 0 398.533 111.541;"
	 xml:space="preserve">
<g>
	<g>
		<polygon points="222.256,100.04 145.361,100.04 145.361,15.499 222.256,15.499 222.256,35.735 165.596,35.735 165.596,79.804 
			202.021,79.804 202.021,68.618 176.389,68.618 176.389,48.382 222.256,48.382 		"/>
	</g>
	<g>
		<path d="M398.533,100.04h-76.896v-84.54h66.103v37.629l10.793,2.068V100.04z M341.873,79.804h36.424v-7.881l-36.424-6.978V79.804z
			 M341.873,44.34l25.632,4.91V35.735h-25.632V44.34z"/>
	</g>
	<g>
		<path d="M233.499,15.499v84.54h20.236v-16.95l36.424-11.783v28.733h20.236v-84.54H233.499z M253.735,61.821V35.735h36.424v14.303
			L253.735,61.821z"/>
	</g>
</g>
<g>
	<g>
		<g>
			<path d="M36.94,92.605c-0.009-0.009-0.019-0.019-0.03-0.03c-1.238-1.268-2.292-2.72-3.091-4.32
				c-0.809,1.599-1.853,3.052-3.091,4.309c0,0-0.009,0-0.019,0.009c-0.166,0.166-0.331,0.331-0.497,0.487
				c-0.8,0.867-1.277,2.019-1.277,3.276c0,2.691,2.184,4.875,4.875,4.875c2.7,0,4.875-2.184,4.875-4.875
				c0-1.257-0.478-2.408-1.268-3.276C37.262,92.917,37.096,92.761,36.94,92.605z"/>
		</g>
		<g>
			<path d="M51.899,92.605c-0.009-0.009-0.019-0.019-0.03-0.03c-1.238-1.268-2.292-2.72-3.091-4.32
				c-0.809,1.599-1.853,3.052-3.091,4.309c0,0-0.009,0-0.019,0.009c-0.166,0.166-0.331,0.331-0.497,0.487
				c-0.8,0.867-1.277,2.019-1.277,3.276c0,2.691,2.184,4.875,4.875,4.875c2.7,0,4.875-2.184,4.875-4.875
				c0-1.257-0.478-2.408-1.268-3.276C52.221,92.917,52.055,92.761,51.899,92.605z"/>
		</g>
		<g>
			<path d="M66.504,92.605c-0.009-0.009-0.019-0.019-0.03-0.03c-1.238-1.268-2.292-2.72-3.091-4.32
				c-0.809,1.599-1.853,3.052-3.091,4.309c0,0-0.009,0-0.019,0.009c-0.166,0.166-0.331,0.331-0.497,0.487
				c-0.8,0.867-1.277,2.019-1.277,3.276c0,2.691,2.184,4.875,4.875,4.875c2.7,0,4.875-2.184,4.875-4.875
				c0-1.257-0.478-2.408-1.268-3.276C66.826,92.917,66.66,92.761,66.504,92.605z"/>
		</g>
	</g>
	<g>
		<path d="M63.421,111.291c-1.705,0-3.385-0.291-4.994-0.865c-0.798-0.283-1.584-0.642-2.336-1.065
			c-2.229,1.264-4.758,1.931-7.323,1.931c-2.565,0-5.095-0.667-7.326-1.931c-1.368,0.773-2.841,1.324-4.38,1.637
			c-0.958,0.195-1.951,0.294-2.95,0.294c-1.658,0-3.289-0.273-4.849-0.812c-1.422-0.492-2.749-1.19-3.943-2.073
			c-3.329-2.441-5.513-6.18-5.991-10.256c-0.137-0.547-0.209-1.139-0.209-1.729l-0.044-9.277c-1.716-1.327-3.361-2.788-4.892-4.342
			c-3.959-4.013-7.161-8.645-9.515-13.768c-2.323-5.06-3.746-10.436-4.228-15.977c-0.113-1.262-0.177-2.524-0.188-3.749
			c-0.02-1.744,0.055-3.516,0.225-5.266c2.4-24.624,22.864-43.448,47.6-43.788l0.686-0.005c12.944,0,25.122,5.053,34.296,14.229
			c9.173,9.175,14.225,21.353,14.224,34.29c0,4.151-0.524,8.273-1.558,12.25c-2.673,10.312-8.802,19.587-17.265,26.128l-0.048,9.274
			c0,0.582-0.069,1.174-0.205,1.756c-0.267,2.281-1.1,4.528-2.403,6.47c-1.504,2.271-3.607,4.085-6.081,5.246
			C67.747,110.821,65.627,111.291,63.421,111.291z M56.341,96.396c0,3.901,3.176,7.076,7.081,7.076c3.9,0,7.072-3.174,7.072-7.075
			v-0.25h0.108l0.06-13.059l0.114-0.073c11.706-7.538,18.695-20.34,18.698-34.244c0-2.225-0.183-4.46-0.542-6.643
			C85.692,22.392,68.801,8.066,48.767,8.066l-0.582,0.008c-8.457,0.115-16.536,2.833-23.378,7.862l8.537,10.493l6.969-5.668
			l1.877-1.516l5.635,23.994l-0.479,0.141l-6.651-18.812l-7.633,7.724l-6.403-6.322l-4.417,2.575l4.819,10.163l-9.625-10.912
			l5.244-5.75l-2.344-2.319c-5.14,5.033-8.865,11.313-10.779,18.177c-1.03,3.674-1.53,7.484-1.487,11.324
			c0.153,13.719,7.142,26.35,18.695,33.789l0.114,0.073l0.053,13.058h0.106v0.25c0,3.901,3.173,7.076,7.073,7.076
			c3.904,0,7.08-3.175,7.08-7.076h0.5c0,3.901,3.174,7.076,7.076,7.076c3.899,0,7.072-3.175,7.072-7.076H56.341z"/>
		<path d="M48.768,0.5c26.617,0,48.267,21.658,48.265,48.268c0,4.175-0.53,8.262-1.55,12.188
			c-2.668,10.297-8.69,19.469-17.272,26.068l-0.013,2.506l-0.036,6.89c0,0.585-0.073,1.159-0.199,1.7
			c-0.276,2.344-1.11,4.515-2.367,6.387c-1.473,2.222-3.544,4.015-5.98,5.159c-1.878,0.883-3.982,1.375-6.195,1.375
			c-1.721,0-3.372-0.301-4.909-0.85c-0.847-0.301-1.656-0.678-2.421-1.118c-2.153,1.247-4.657,1.968-7.322,1.968
			c-2.664,0-5.17-0.719-7.326-1.968c-1.359,0.785-2.848,1.358-4.43,1.68c-0.94,0.191-1.908,0.289-2.9,0.289
			c-1.669,0-3.271-0.281-4.768-0.798c-1.399-0.484-2.705-1.172-3.876-2.038c-3.194-2.342-5.406-5.95-5.89-10.084
			c-0.136-0.549-0.208-1.115-0.208-1.7l-0.044-9.401c-1.766-1.359-3.421-2.828-4.963-4.394c-3.949-4.003-7.143-8.641-9.466-13.697
			C2.62,63.97,1.175,58.602,0.691,53.036c-0.11-1.232-0.175-2.478-0.188-3.73c-0.021-1.77,0.057-3.514,0.224-5.239
			C3.079,19.944,23.316,0.845,48.081,0.505c0.232,0,0.456-0.005,0.683-0.005H48.768 M33.308,26.781l7.163-5.826l1.566-1.265
			l0.427,1.826l5.118,21.78l-6.785-19.188l-6.524,6.606l-1.213,1.224l-1.375-1.355l-4.987-4.927l-4.78,2.787l4.157,8.767
			l-6.439-7.302l-1.079-1.221l-0.785-0.891l1.11-1.221l4.145-4.54l-2.689-2.661c-5.174,5.007-9.04,11.357-11.021,18.46
			C8.3,41.463,7.777,45.288,7.821,49.229C7.98,63.5,15.429,76.013,26.631,83.225l0.054,13.172h0.106
			c0,4.047,3.279,7.326,7.322,7.326c4.047,0,7.33-3.279,7.33-7.326c0,4.047,3.279,7.326,7.326,7.326
			c4.044,0,7.322-3.279,7.322-7.326c0,4.047,3.284,7.326,7.33,7.326c4.044,0,7.323-3.279,7.323-7.326h0.106l0.005-0.528
			l0.057-12.644c11.312-7.285,18.81-19.997,18.813-34.453c0-2.279-0.188-4.512-0.546-6.684C85.988,22.647,69.11,7.816,48.767,7.816
			c-0.191,0-0.386,0.008-0.582,0.008c-8.877,0.121-17.078,3.108-23.737,8.067l3.441,4.231L33.308,26.781 M48.768,0h-0.005
			L48.42,0.002l-0.34,0.002C36.032,0.17,24.52,4.786,15.659,13.001C6.864,21.154,1.384,32.17,0.229,44.019
			c-0.17,1.76-0.246,3.54-0.226,5.293c0.012,1.235,0.076,2.503,0.19,3.769c0.484,5.568,1.914,10.971,4.25,16.058
			c2.365,5.148,5.583,9.805,9.564,13.84c1.508,1.531,3.129,2.973,4.82,4.289l0.043,9.157c0,0.597,0.072,1.199,0.215,1.787
			c0.493,4.133,2.71,7.921,6.088,10.398c1.215,0.898,2.564,1.607,4.009,2.107c1.585,0.548,3.244,0.826,4.931,0.826
			c1.015,0,2.024-0.1,3-0.299c1.519-0.309,2.974-0.845,4.33-1.595c2.237,1.24,4.764,1.894,7.326,1.894
			c2.56,0,5.086-0.654,7.323-1.894c0.727,0.401,1.483,0.741,2.252,1.015c1.634,0.583,3.342,0.879,5.077,0.879
			c2.244,0,4.4-0.479,6.408-1.423c2.514-1.18,4.653-3.025,6.184-5.335c1.318-1.964,2.164-4.238,2.444-6.577
			c0.136-0.593,0.205-1.194,0.205-1.786l0.036-6.888l0.011-2.262c8.457-6.571,14.581-15.862,17.258-26.189
			c1.039-3.998,1.566-8.141,1.566-12.313c0.001-13.004-5.077-25.245-14.297-34.467C74.015,5.079,61.774,0,48.768,0L48.768,0z
			 M48.195,8.324c0.094,0,0.195-0.002,0.295-0.004c0.093-0.002,0.186-0.004,0.277-0.004c19.911,0,36.699,14.237,39.918,33.853
			c0.358,2.17,0.539,4.392,0.539,6.603c-0.003,13.819-6.95,26.541-18.584,34.033l-0.228,0.147l-0.001,0.271l-0.057,12.644l0,0.031
			h-0.11v0.5c0,3.764-3.061,6.826-6.823,6.826c-3.766,0-6.83-3.062-6.83-6.826h-1c0,3.764-3.061,6.826-6.822,6.826
			c-3.764,0-6.826-3.062-6.826-6.826h-1c0,3.764-3.064,6.826-6.83,6.826c-3.762,0-6.822-3.062-6.822-6.826v-0.5h-0.108
			l-0.052-12.674l-0.001-0.271l-0.228-0.147C15.419,75.412,8.473,62.858,8.321,49.223c-0.043-3.816,0.454-7.602,1.478-11.254
			c1.881-6.744,5.52-12.921,10.537-17.893l1.998,1.977l-3.821,4.186l-1.111,1.221l-0.301,0.331l0.296,0.336l0.785,0.891l1.079,1.221
			l6.439,7.302l2.347,2.662l-1.521-3.207l-3.96-8.352l4.053-2.363l4.714,4.658l1.376,1.355l0.355,0.35l0.351-0.354l1.213-1.224
			l5.964-6.039l6.518,18.436l0.958-0.281l-5.118-21.78l-0.427-1.826l-0.181-0.775l-0.62,0.5l-1.566,1.265l-6.777,5.511l-5.103-6.271
			l-3.11-3.824c6.755-4.899,14.704-7.545,23.024-7.659C48.193,8.324,48.194,8.324,48.195,8.324L48.195,8.324z"/>
	</g>
	<g>
		<g>
			<path d="M41.392,51.292c-0.255-0.458-0.501-0.901-0.769-1.309c-0.284-0.399-0.527-0.797-0.817-1.143
				c-0.548-0.709-1.105-1.305-1.625-1.802c-0.513-0.501-1.01-0.886-1.413-1.198c-0.402-0.314-0.752-0.522-0.98-0.67
				c-0.233-0.141-0.362-0.21-0.362-0.21s0.266,0.509,0.728,1.399c0.195,0.383,0.414,0.842,0.65,1.356
				c-0.548-0.297-1.129-0.554-1.745-0.763l-4.112-1.396c-6.665-2.264-13.727,2.168-14.589,9.154l-0.129,1.048
				c-0.665,5.392,2.67,10.472,7.881,12.007l3.763,1.108c1.522,0.449,3.079,0.553,4.581,0.356c-0.638,0.417-1.269,0.755-1.838,1.06
				c-0.593,0.299-1.126,0.569-1.578,0.761c-0.898,0.396-1.449,0.611-1.449,0.611s0.143,0.035,0.414,0.074
				c0.27,0.033,0.673,0.102,1.185,0.11c0.513,0.021,1.143,0.023,1.863-0.047c0.718-0.078,1.536-0.201,2.411-0.452
				c0.443-0.11,0.884-0.287,1.356-0.449c0.455-0.2,0.937-0.39,1.404-0.656c0.958-0.494,1.881-1.165,2.782-1.997
				c0.225-0.227,0.456-0.456,0.679-0.698l0.168-0.18l0.128-0.158l0.254-0.315l0.255-0.317l0.128-0.159l0.186-0.27
				c0.177-0.261,0.342-0.533,0.503-0.808c0.644-1.104,1.117-2.327,1.425-3.576c0.144-0.628,0.251-1.263,0.318-1.887
				c0.071-0.587,0.06-1.257,0.086-1.872c-0.045-1.252-0.197-2.479-0.527-3.605C42.323,53.256,41.857,52.229,41.392,51.292z"/>
		</g>
		<g>
			<path d="M81.176,54.711c-0.86-6.986-7.923-11.418-14.589-9.154l-4.112,1.396c-0.614,0.209-1.197,0.465-1.745,0.763
				c0.237-0.513,0.456-0.973,0.65-1.356c0.464-0.89,0.728-1.399,0.728-1.399s-0.131,0.069-0.363,0.21
				c-0.228,0.149-0.578,0.357-0.98,0.67c-0.402,0.312-0.899,0.697-1.413,1.198c-0.519,0.495-1.077,1.092-1.625,1.802
				c-0.29,0.345-0.535,0.743-0.817,1.143c-0.267,0.408-0.513,0.851-0.769,1.309c-0.465,0.937-0.931,1.964-1.216,3.103
				c-0.33,1.126-0.482,2.354-0.527,3.605c0.027,0.616,0.015,1.285,0.086,1.872c0.068,0.625,0.174,1.258,0.318,1.887
				c0.309,1.251,0.782,2.474,1.425,3.576c0.161,0.275,0.326,0.547,0.503,0.808l0.186,0.27l0.128,0.159l0.255,0.317l0.254,0.315
				l0.128,0.158l0.168,0.18c0.221,0.242,0.453,0.47,0.679,0.698c0.902,0.832,1.824,1.503,2.782,1.997
				c0.467,0.266,0.949,0.458,1.404,0.656c0.471,0.162,0.913,0.339,1.356,0.449c0.875,0.251,1.692,0.374,2.411,0.452
				c0.721,0.069,1.35,0.068,1.863,0.047c0.512-0.008,0.914-0.077,1.185-0.11c0.27-0.039,0.414-0.074,0.414-0.074
				s-0.55-0.215-1.452-0.611c-0.452-0.194-0.983-0.462-1.578-0.761c-0.569-0.305-1.2-0.643-1.838-1.06
				c1.501,0.198,3.06,0.093,4.581-0.356l3.763-1.108c5.211-1.534,8.546-6.615,7.881-12.007L81.176,54.711z"/>
		</g>
		<g>
			<path d="M49.885,80.187h2.736c0.477,0,0.775-0.656,0.536-1.18l-2.736-6.019c-0.317-0.697-1.156-0.411-1.156,0.393V79.4
				C49.265,79.834,49.543,80.187,49.885,80.187z"/>
		</g>
		<g>
			<path d="M44.917,79.558h2.736c0.342,0,0.619-0.278,0.619-0.619v-4.737c0-0.634-0.839-0.859-1.156-0.309L44.38,78.63
				C44.142,79.043,44.441,79.558,44.917,79.558z"/>
		</g>
	</g>
</g>
</svg>
