<?xml version="1.0" standalone="no"?>
<!DOCTYPE svg PUBLIC "-//W3C//DTD SVG 20010904//EN"
 "http://www.w3.org/TR/2001/REC-SVG-20010904/DTD/svg10.dtd">
<svg version="1.0" xmlns="http://www.w3.org/2000/svg"
 width="300.000000pt" height="300.000000pt" viewBox="0 0 300.000000 300.000000"
 preserveAspectRatio="xMidYMid meet">
<metadata>
Created by potrace 1.14, written by Peter Selinger 2001-2017
</metadata>
<g transform="translate(0.000000,300.000000) scale(0.100000,-0.100000)"
fill="#000000" stroke="none">
<path d="M109 2980 c-20 -11 -52 -38 -70 -62 l-34 -42 -3 -1351 c-2 -941 0
-1361 8 -1387 14 -50 56 -97 105 -119 38 -18 101 -19 1385 -19 1287 0 1347 1
1385 19 48 22 79 54 100 103 13 33 15 190 15 1380 0 1284 -1 1345 -19 1383
-22 48 -54 79 -103 100 -33 13 -191 15 -1385 15 -1310 -1 -1349 -1 -1384 -20z"/>
</g>
</svg>
