<?xml version="1.0" encoding="utf-8"?>
<!-- Generator: Adobe Illustrator 26.2.1, SVG Export Plug-In . SVG Version: 6.00 Build 0)  -->
<svg version="1.1" id="Layer_1" xmlns="http://www.w3.org/2000/svg" xmlns:xlink="http://www.w3.org/1999/xlink" x="0px" y="0px"
	 width="443.742px" height="113.201px" viewBox="0 0 443.742 113.201" enable-background="new 0 0 443.742 113.201"
	 xml:space="preserve">
<g>
	<path fill="#F46060" d="M149.719,106.288c-0.072,0.72-0.72,1.224-1.44,1.08c-26.642-3.672-54.725-0.72-72.582,2.16
		c-0.288,0.432-0.504,0.72-0.504,0.72c-0.216,0.36-0.648,0.576-1.08,0.576c-0.216,0-0.432-0.072-0.648-0.216
		c-0.288-0.144-0.432-0.36-0.504-0.648c-9.721,1.656-15.841,3.097-15.985,3.168c-0.144,0-0.216,0.072-0.288,0.072
		c-0.576,0-1.08-0.432-1.224-1.008c-0.216-0.648,0.216-1.368,0.864-1.512c0.216-0.072,7.056-1.728,17.857-3.456
		c4.248-6.769,19.946-31.539,24.41-39.82c0.72-1.224,1.44-2.592,2.16-3.96c7.632-13.825,18.073-32.763,13.393-46.3
		c-1.944-5.4-6.048-9.433-12.673-12.241C82.681-3.018,41.853,9.295,19.027,29.745C9.378,38.386-1.062,51.995,3.69,67.909
		c3.672,12.169,17.137,21.53,37.011,25.778c0.648,0.144,1.08,0.792,0.936,1.44c-0.144,0.72-0.792,1.152-1.512,1.008
		c-10.081-2.16-18.649-5.544-25.274-10.153C7.866,81.23,3.33,75.398,1.313,68.628c-2.16-7.128-1.656-14.401,1.512-21.746
		c2.809-6.48,7.705-12.889,14.473-19.01C28.532,17.864,44.518,9.224,61.223,4.255c16.778-5.04,31.755-5.616,41.26-1.656
		c7.201,3.096,11.881,7.705,14.041,13.753c5.041,14.545-5.688,34.059-13.537,48.316c-0.72,1.368-1.512,2.664-2.16,3.96
		c-4.176,7.633-17.857,29.451-23.33,38.02c18.074-2.736,45.292-5.329,71.143-1.728C149.358,104.992,149.791,105.64,149.719,106.288z
		"/>
	<path fill="#F46060" d="M149.061,77.629c-8.929,2.16-18.218,4.104-24.698,4.104c-3.312,0-5.904-0.504-7.345-1.8
		c-0.936-0.864-1.368-2.016-1.224-3.312c0.144-0.792,0.36-1.512,0.72-2.232c0-0.072,0-0.144,0.072-0.144
		c0.792-1.656,2.304-3.24,4.104-4.32c1.728-1.008,3.312-1.512,5.112-1.584c1.512-0.072,2.521,0.216,3.241,0.792
		c0.864,0.864,1.008,2.304,0.216,3.744c-1.224,2.376-4.752,4.464-10.801,3.384c-0.072,0.216-0.072,0.432-0.144,0.648
		c-0.072,0.648,0.144,0.936,0.432,1.152c0.864,0.792,3.672,1.872,13.25,0.504c6.265-0.936,12.889-2.52,16.489-3.384
		c0.936-0.216,1.656-0.432,2.16-0.504c0.648-0.144,1.296,0.288,1.44,0.936c0.216,0.72-0.216,1.368-0.937,1.512
		C150.717,77.27,149.997,77.414,149.061,77.629z M119.754,73.957c4.537,0.504,6.409-1.08,6.913-1.656
		c0.504-0.648,0.576-1.152,0.576-1.296c-0.144-0.072-0.504-0.216-1.368-0.144c-1.368,0-2.521,0.432-3.888,1.224
		C121.122,72.589,120.402,73.237,119.754,73.957z"/>
	<path fill="#F46060" d="M205.294,75.541c0.216,0.648-0.216,1.368-0.864,1.584c-0.792,0.216-20.09,6.048-34.275,6.048
		c-2.809,0-4.537-0.792-5.185-2.448c-0.72-1.944,0.648-4.608,2.376-6.913l-18.578,8.641c-0.504,0.216-1.152,0.072-1.512-0.36
		c-0.36-0.504-0.36-1.152,0-1.584l9.792-11.953c0.432-0.576,1.224-0.648,1.8-0.216c0.504,0.432,0.648,1.224,0.144,1.8l-6.265,7.705
		l19.226-9c0.576-0.288,1.224-0.072,1.584,0.432c0.36,0.504,0.288,1.224-0.216,1.656c-3.312,3.097-6.552,7.417-5.977,8.929
		c0.216,0.504,1.224,0.792,2.809,0.792c13.753,0,33.339-5.905,33.555-5.977C204.358,74.461,205.078,74.821,205.294,75.541z"/>
	<path fill="#F46060" d="M214.866,79.502c-3.456,1.728-7.272,2.952-10.009,2.952c-0.576,0-1.08,0-1.512-0.144
		c-1.584-0.432-1.944-1.584-2.016-2.016c-0.36-2.736,3.816-5.76,6.409-7.417c4.752-2.952,11.593-5.616,14.905-4.68
		c1.584,0.432,1.872,1.584,1.944,2.016c0.432,2.736-3.816,5.76-6.337,7.417c-0.144,0-0.216,0.072-0.288,0.144
		c2.088,0.504,4.752,0.864,7.777,0.864c5.185,0,16.562-2.665,18.866-3.96c0.576-0.36,1.368-0.144,1.728,0.504
		c0.288,0.576,0.072,1.368-0.504,1.656c-2.88,1.656-14.761,4.32-20.09,4.32C221.779,81.158,217.818,80.582,214.866,79.502z
		 M211.986,78.062c-1.368-0.936-2.161-2.088-2.232-3.457c-0.216,0.144-0.432,0.288-0.72,0.432c-3.672,2.304-5.041,4.176-5.184,4.752
		c0.072,0.072,0.072,0.072,0.144,0.072C205.29,80.222,208.458,79.574,211.986,78.062z M218.467,70.933
		c-0.144,0.072-0.288,0.144-0.432,0.216c-3.816,0.864-5.761,2.304-5.761,3.312c0,0.72,0.864,1.512,2.448,2.232
		c0.72-0.36,1.44-0.792,2.16-1.224c3.745-2.304,5.113-4.176,5.185-4.752c0-0.072-0.072-0.072-0.072-0.072
		C221.275,70.429,219.979,70.573,218.467,70.933z"/>
	<path fill="#F46060" d="M343.97,75.613c0.145,0.72-0.288,1.368-0.936,1.512c-4.32,1.08-9.865,2.376-16.562,3.816
		c-9.433,2.088-14.546,1.944-16.706-0.504c-1.872-2.088-0.792-5.04,0-7.201c0.217-0.504,0.505-1.296,0.576-1.728
		c-2.376,0.216-10.945,5.256-18.001,10.225c-0.504,0.36-1.152,0.288-1.584-0.072c-0.432-0.432-0.504-1.08-0.216-1.584
		c0-0.072,2.304-4.32,5.904-9.865c-14.257,6.984-30.531,12.817-41.62,12.817c-6.192,0-9.361-2.016-9.361-5.833
		c0-5.472,6.409-9.865,11.737-9.865c1.44,0,2.376,0.216,3.096,0.72c0.936,0.792,1.152,1.944,0.504,3.096
		c-0.288,0.648-1.08,0.864-1.728,0.504c-0.576-0.288-0.792-1.08-0.504-1.656c-0.144-0.072-0.576-0.144-1.368-0.144
		c-4.105,0-9.217,3.457-9.217,7.345c0,0.864,0,3.312,6.84,3.312c11.449,0,29.451-6.841,44.428-14.545
		c0.937-1.368,1.872-2.664,2.881-4.032c9-12.313,16.561-18.578,22.609-18.578c2.017,0,2.664,1.224,2.809,1.8
		c1.08,2.952-3.097,7.561-6.984,10.585c-4.681,3.744-11.737,8.064-19.586,12.241c-2.088,3.024-4.033,6.049-5.544,8.641
		c1.296-0.864,2.736-1.8,4.248-2.736c8.497-5.185,10.874-5.257,12.097-4.608c1.8,0.864,1.008,2.952,0.36,4.824
		c-0.576,1.656-1.368,3.744-0.504,4.681c0.792,0.936,3.672,2.088,14.257-0.288c6.696-1.44,12.241-2.736,16.562-3.816
		C343.105,74.533,343.826,74.965,343.97,75.613z M304.223,63.3c5.904-3.312,11.089-6.553,14.833-9.505
		c5.041-3.96,6.409-7.201,6.121-7.849c0,0-0.145-0.072-0.433-0.072C318.768,45.875,310.919,54.299,304.223,63.3z"/>
	<path fill="#F46060" d="M391.99,75.181c0.359,0.576,0.144,1.368-0.433,1.728c-0.504,0.288-12.529,7.273-27.002,7.273
		c-8.425,0-14.041-4.537-16.418-7.489c-4.68,4.032-9.288,8.713-11.736,11.305c-0.217,0.216-0.576,0.36-0.937,0.36
		c-0.288,0-0.576-0.072-0.792-0.288c-0.504-0.432-0.576-1.224-0.144-1.728l26.21-32.619c0.432-0.576,1.224-0.648,1.728-0.216
		c0.576,0.432,0.648,1.224,0.217,1.728l-14.042,17.57c0.072,0,0.145,0,0.217,0.072c4.248-3.384,8.496-6.048,11.377-6.048
		c1.296,0,2.304,0.648,2.808,1.656c0.576,1.296,0.217,2.953-0.936,4.321c-0.864,1.08-4.032,4.104-11.449,2.952
		c2.088,2.376,6.841,5.904,13.897,5.904c11.017,0,21.674-4.536,25.706-6.984C390.91,74.317,391.63,74.533,391.99,75.181z
		 M352.242,73.453c4.104,0.36,6.769-0.792,7.921-2.232c0.648-0.792,0.72-1.44,0.576-1.656c-0.072-0.144-0.216-0.216-0.504-0.216
		C358.363,69.349,355.411,71.077,352.242,73.453z"/>
	<path fill="#F46060" d="M443.686,75.325c0.216,0.72-0.216,1.368-0.864,1.584c-10.08,2.736-17.929,4.177-23.258,4.32
		c-4.752,0.072-7.704-0.864-9.001-2.952c-0.575-0.936-0.72-2.088-0.504-3.096c-6.408,3.528-16.777,6.553-20.521,6.697
		c-0.072,0-0.144,0-0.216,0c-0.792,0-2.232-0.144-2.664-1.368c-0.505-1.512,1.008-2.952,2.808-4.249
		c12.673-9.433,16.418-8.785,18.146-7.489c1.297,1.008,1.513,2.665,1.368,4.104c1.368-0.792,2.305-1.368,2.881-1.872
		c0.575-0.864,1.151-1.512,1.296-1.728c0.36-0.432,1.008-0.504,1.512-0.216c0.576,0.288,0.792,0.864,0.648,1.44
		c-0.216,0.648-0.72,1.368-1.513,2.088c-0.863,1.368-1.8,3.24-1.08,4.393c0.864,1.44,5.473,4.032,29.379-2.521
		C442.821,74.317,443.47,74.677,443.686,75.325z M406.099,70.789c-0.145-0.072-0.36-0.216-0.864-0.216
		c-1.584,0-5.328,1.08-14.257,7.705c-0.576,0.432-1.009,0.792-1.297,1.08c2.809-0.144,10.226-2.16,16.49-5.041
		C406.53,73.021,406.746,71.221,406.099,70.789z"/>
</g>
</svg>
