<?xml version="1.0" encoding="utf-8"?>
<!-- Generator: Adobe Illustrator 26.2.1, SVG Export Plug-In . SVG Version: 6.00 Build 0)  -->
<svg version="1.2" baseProfile="tiny" id="Layer_1" xmlns="http://www.w3.org/2000/svg" xmlns:xlink="http://www.w3.org/1999/xlink"
	 x="0px" y="0px" width="292.274px" height="245.526px" viewBox="0 0 292.274 245.526" overflow="visible" xml:space="preserve">
<g>
	<g>
		<path fill="#F47373" d="M116.479,70.568c0.071,0.04,0.123,0.107,0.114,0.202c-0.002,0.023-0.007,0.044-0.009,0.067
			c0,0,0.001,0,0.001,0c-0.001,0.006-0.003,0.012-0.004,0.018c-0.035,0.331-0.1,0.656-0.168,0.98
			c0.029,0.018,0.053,0.042,0.073,0.07c1.072-3.353,2.57-6.612,2.626-10.199c0.002-0.109,0.062-0.18,0.138-0.217
			c0.066-0.456,0.125-0.913,0.185-1.37c-0.888,2.662-1.736,5.339-2.58,8.014c-0.086,0.273-0.169,0.546-0.254,0.819
			C116.575,69.491,116.538,70.03,116.479,70.568z"/>
		<path fill="#F47373" d="M129.159,49.367c-0.138-1.65-2.866-3.5-4.259-2.243c-0.644,0.581-1.179,1.31-1.637,2.127
			c-0.1,0.598-0.199,1.197-0.299,1.795c0.149-0.051,0.358,0.056,0.35,0.233c-0.034,0.778-0.221,1.517-0.48,2.25
			c-0.102,0.289-0.217,0.573-0.332,0.857c-0.06,0.148-0.132,0.523-0.22,0.534c0.023,0.095,0,0.203-0.097,0.276
			c-0.014,0.011-0.028,0.021-0.042,0.032c-0.107,0.081-0.283,0.025-0.346-0.084c-0.136-0.236,0.089-0.566,0.177-0.788
			c0.152-0.382,0.303-0.764,0.435-1.151c-0.149,0.01-0.295-0.111-0.263-0.304c0.111-0.666,0.222-1.332,0.333-1.998
			c-0.496,1.207-0.89,2.498-1.258,3.736c-0.231,1.114-0.552,2.209-0.953,3.284c0.018,0.044,0.027,0.091,0.015,0.145
			c-0.329,1.438-0.402,2.919-0.672,4.368c-0.007,0.035-0.019,0.065-0.036,0.09c-0.394,5.184-3.566,9.733-3.652,14.964
			c-0.005,0.324-0.509,0.333-0.504,0.009c0.024-1.481,0.3-2.905,0.685-4.305c-0.005-0.021-0.013-0.039-0.013-0.064
			c0-0.037,0.002-0.078,0.003-0.117c-0.154,0.054-0.356-0.022-0.339-0.219c0.002-0.023,0.007-0.045,0.009-0.067c0,0-0.001,0-0.001,0
			c0.001-0.004,0.002-0.01,0.003-0.014c0.016-0.149,0.035-0.297,0.062-0.444c-0.048-0.054-0.078-0.125-0.065-0.214
			c0.048-0.259,0.082-0.519,0.12-0.779c-0.795,2.567-1.579,5.136-2.342,7.713c-0.56,1.893-1.112,3.789-1.654,5.687
			c-0.541,1.893-1.289,3.591-0.782,5.545c0.354,1.362,2.733,3.952,4.368,2.784c1.554-1.11,1.669-2.409,2.186-4.22
			c0.541-1.898,1.091-3.794,1.65-5.687c1.118-3.786,2.27-7.562,3.457-11.327c1.187-3.766,2.437-7.512,3.651-11.269
			C127.549,56.993,129.472,53.104,129.159,49.367z"/>
	</g>
	<g>
		<path fill="#F47373" d="M149.502,47.054c-1.607-2.535-4.422-3.284-7.054-1.968c-2.634,1.317-4.535,3.932-6.153,6.297
			c-2.098,3.066-3.914,6.308-5.711,9.557c-2.512,4.543-5.173,9.002-7.822,13.467c-2.966,4.999-6.541,10.181-8.265,15.775
			c-0.209,0.679,1.115,1.557,1.629,1.032c3.339-3.413,5.759-7.915,8.227-11.973c2.444-4.017,4.848-8.062,7.222-12.121
			c3.171-5.423,5.89-11.319,10.088-16.054c0.836-0.942,1.766-1.958,2.889-2.563c0.152-0.082,0.483-0.189,0.604-0.299
			c0,0.009,0,0.021,0,0.028c-0.144,3.105-0.66,6.507-1.341,9.527c-0.617,2.737-1.306,5.458-2.02,8.173v0.712
			c0.057-0.124,0.12-0.246,0.2-0.36c0.134-0.192,0.472-0.15,0.472,0.119c-0.001,0.949-0.036,1.885-0.126,2.819
			c0.072,0.039,0.126,0.108,0.126,0.206c0,0.024-0.007,0.044-0.008,0.067l0,0c-0.014,0.305-0.109,0.567-0.202,0.838
			c-0.383,1.546-0.894,3.056-1.478,4.539c-0.117,0.297-0.605,0.178-0.488-0.125c0.45-1.173,0.71-2.334,0.755-3.533
			c-0.335,1.326-0.697,2.646-0.938,3.995c-0.022,0.122-0.118,0.176-0.219,0.181c-0.51,2.399-1.049,4.793-1.461,7.212
			c-0.007,0.043-0.026,0.076-0.049,0.104c-0.213,2.057-0.966,3.986-1.631,5.945c-0.104,0.305-0.593,0.182-0.488-0.125
			c0.74-2.181,1.612-4.319,1.672-6.654c0.003-0.119,0.072-0.194,0.158-0.228c0.485-2.667,1.1-5.308,1.641-7.963
			c0.004-0.027,0.009-0.054,0.013-0.081c-1.045,3.885-2.068,7.776-2.943,11.703c-1.734,7.776-4.608,15.806-4.682,23.823
			c-0.018,1.965,3.564,4.55,5.392,3.437c1.803-1.097,1.846-2.836,2.655-4.626c0.783-1.731,1.428-3.514,2.303-5.21
			c0.441-0.855-1.149-2.062-1.849-1.393c-0.362,0.346-0.718,0.694-1.073,1.043c0.268-1.093,0.547-2.177,0.813-3.245
			c1.04-4.179,1.971-8.373,2.942-12.568c1.216-5.255,2.576-10.476,3.95-15.691c1.344-5.102,2.996-10.143,3.398-15.431
			C150.858,52.7,151.042,49.482,149.502,47.054z M145.577,48.013C145.702,48.051,145.685,48.204,145.577,48.013L145.577,48.013z"/>
		<path fill="#F47373" d="M140.68,70.587c0.099-0.405,0.197-0.811,0.283-1.219c0.064-0.304,0.459-0.199,0.496,0.058
			c0.078,0.542,0.107,1.068,0.101,1.588c0.024-0.088,0.053-0.174,0.077-0.262c0-0.014-0.004-0.026-0.002-0.04
			c0.186-0.999,0.268-1.993,0.303-2.996c-0.054,0.169-0.11,0.336-0.176,0.494c-0.099,0.238-0.472,0.116-0.472-0.119v-0.25
			c-0.24,0.898-0.482,1.796-0.724,2.694C140.608,70.544,140.647,70.561,140.68,70.587z"/>
	</g>
	<g>
		<path fill="#F47373" d="M158.902,59.808c-0.252,0.418-0.448,0.861-0.629,1.312c1.606-1.862,3.68-3.369,5.309-5.179
			c0.541-0.601,0.828-1.185,1.208-1.865c0.22-0.394,0.481-0.545,0.884-0.835c0.308-0.222,0.614-0.448,0.919-0.676
			c-3.089,1.366-5.624,4.15-7.703,6.985C158.943,59.616,158.962,59.708,158.902,59.808z"/>
		<path fill="#F47373" d="M175.709,53.538c-1.858-1.667-4.393-2.131-6.798-1.701c-0.275,0.049-0.543,0.118-0.81,0.19
			c-0.597,0.477-1.206,0.941-1.819,1.392c-0.527,0.388-0.865,0.581-1.134,1.159c-0.223,0.478-0.518,0.902-0.852,1.309
			c-2.188,2.663-5.434,4.515-7.074,7.619c-0.149,0.248-0.5,0.086-0.467-0.156c-0.171,0.281-0.348,0.558-0.541,0.828
			c-0.063,0.089-0.175,0.118-0.275,0.104c-0.245,0.486-0.479,0.979-0.708,1.474c0,0.014,0.002,0.027-0.001,0.042
			c-0.313,1.531-0.693,3.015-1.368,4.429c-0.14,0.293-0.579,0.045-0.44-0.247c0.517-1.083,0.847-2.208,1.113-3.363
			c-0.058-0.038-0.101-0.098-0.118-0.168c-2.469,4.331-4.636,9.419-4.451,14.042c0.143,3.576,3.824,9.147,7.863,6.109
			c2.072-1.558,3.461-3.971,5.054-5.972c2.449-3.077,5.179-5.757,6.644-9.479c0.235-0.598-1.042-1.547-1.55-1.168
			c-4.212,3.148-7.354,7.615-10.846,11.51c-0.395,0.44-0.877,0.839-1.336,1.245c0.509-1.724,0.796-3.547,1.353-5.244
			c1.835-5.592,4.864-10.751,8.637-15.253c1.559-1.86,3.42-4.031,5.752-4.912c0.607-0.229,1.225-0.262,1.847-0.382
			c0.436,0.776,2.073,2.463,3.088,1.617C178.213,57.113,177.165,54.844,175.709,53.538z M173.85,56.903
			C174.094,56.948,174.018,57.135,173.85,56.903L173.85,56.903z"/>
	</g>
	<g>
		<path fill="#F47373" d="M190.736,75.358c-0.174,0.079-0.352,0.144-0.53,0.212c1.377,0.018,2.75,0.085,4.109,0.329h4.452
			c-0.036-0.145,0.054-0.335,0.233-0.336c0.995-0.006,1.989-0.049,2.983-0.099c-3.744-0.088-7.489-0.134-11.229-0.124
			C190.748,75.344,190.745,75.354,190.736,75.358z"/>
		<path fill="#F47373" d="M270.975,77.798c-4.682-0.609-9.576-0.403-14.296-0.509c-4.717-0.107-9.435-0.158-14.153-0.262
			c-0.998-0.022-1.995-0.058-2.993-0.086c-0.052,0.084-0.145,0.145-0.266,0.127c-0.491-0.072-0.983-0.127-1.475-0.177
			c-2.118-0.066-4.236-0.141-6.353-0.226c-1.849,0.017-3.699,0.07-5.546,0.075c-0.195,0-0.272-0.175-0.236-0.319
			c-0.127-0.006-0.253-0.012-0.38-0.017h-4.761c-0.151,0-0.236-0.11-0.247-0.229c-2.061-0.097-4.122-0.194-6.183-0.288
			c-1.968-0.09-3.939-0.169-5.912-0.239c-0.087,0.004-0.173,0.011-0.26,0.015c-0.04,0.041-0.094,0.069-0.168,0.07
			c-2.395,0.014-4.783,0.213-7.175,0.295c0.068,0.148-0.021,0.377-0.218,0.377h-7.393c-0.144,0-0.223-0.1-0.24-0.211
			c-1.259-0.118-2.526-0.124-3.792-0.125c-0.23,0-0.376-0.359-0.135-0.467c0.2-0.091,0.404-0.172,0.608-0.252
			c-0.575,0.004-1.15,0.005-1.725,0.011c-3.718,0.04-7.644,0.128-11.242-0.944c-1.324-0.394-2.748-0.759-3.037-2.269
			c-0.372-1.943,1.295-3.962,1.762-5.798c0.439-1.726-2.751-4.287-4.309-3.247c-6.459,4.311-2.826,12.153,2.924,15.012
			c6.238,3.101,13.304,2.59,20.055,2.554c8.212-0.044,16.416,0.399,24.632,0.285c8.28-0.115,16.555-0.447,24.834-0.62
			c4.609-0.097,9.219-0.192,13.827-0.34c4.767-0.154,9.877,0.024,14.572-0.847C272.629,78.971,271.421,77.856,270.975,77.798z"/>
	</g>
	<g>
		<path fill="#F47373" d="M113.964,83.674c-5.448,4.13-12.822,9.685-20.054,6.496c-6.177-2.723-3.328-13.012-1.951-17.911
			c0.444-1.58,0.97-3.133,1.569-4.657c9.092,1.584,17.218-7.209,21.185-14.502c1.967-3.616,3.83-8.027,0.566-11.529
			c-3.789-4.066-8.059-2.203-11.691,0.65c-1.722,1.753-3.334,3.61-5.211,5.205c-0.096,0.082-0.231,0.08-0.326,0.018
			c-2.017,2.165-3.555,4.701-5.278,7.097c0.673-0.85,1.435-1.641,2.217-2.424c0.229-0.23,0.592,0.12,0.363,0.35
			c-1.436,1.437-2.846,2.899-3.655,4.759c0.001,0.01,0.004,0.018,0.004,0.028c-0.003,0.083-0.093,0.537-0.104,0.531
			c0.291,0.145,0.043,0.584-0.247,0.44c-0.025-0.012-0.04-0.028-0.06-0.043c-0.175,0.131-0.479,0.022-0.397-0.24
			c0.326-1.043,0.834-1.961,1.439-2.813c-0.065,0.064-0.152,0.098-0.236,0.089c-0.855,1.434-1.678,2.889-2.059,4.53
			c-0.067,0.287-0.471,0.208-0.491-0.046c-0.921,1.842-1.745,3.737-2.453,5.682c-2.926,8.026-5.781,20.127,2.077,26.289
			c3.698,2.899,8.826,3.882,13.349,2.64c5.184-1.424,9.569-5.299,13.473-8.833C116.747,84.798,114.716,83.104,113.964,83.674z
			 M101.594,53.926c2.192-2.656,4.645-5.105,7.351-7.237c0.593-0.467,1.191-0.948,1.828-1.355c-0.021,0.137-0.038,0.237-0.049,0.278
			c-0.228,0.836-0.554,1.647-0.886,2.446c-1.619,3.894-4.036,7.62-6.821,10.783c-2.037,2.314-4.981,5.102-8.212,5.795
			C96.606,60.803,98.89,57.201,101.594,53.926z"/>
	</g>
	<g>
		<path fill="#F47373" d="M44.555,201.618c-0.16,1.311-0.197,2.632-0.205,3.964c0.148-1.297,0.318-2.586,0.511-3.863
			C44.754,201.749,44.621,201.715,44.555,201.618z"/>
		<path fill="#F47373" d="M83.511,218.259c0.621-0.583,1.098-1.234,1.425-2.018c-0.377,0.287-0.725,0.61-1.066,0.944
			C83.732,217.533,83.614,217.892,83.511,218.259z"/>
		<path fill="#F47373" d="M97.81,193.184c0.057-0.012,0.118-0.007,0.173,0.022c0.122,0.065,0.172,0.187,0.203,0.31
			c0.599-1.29,1.081-2.614,1.4-4.003C99.008,190.749,98.415,191.973,97.81,193.184z"/>
		<path fill="#F47373" d="M110.444,143.392c-3.271-10.548-11.51-20.523-22.873-22.385c-0.488-0.08-0.975-0.14-1.461-0.189
			c0.256-0.253,0.505-0.514,0.763-0.766c2.158-2.105,4.329-4.198,6.57-6.215c2.244-2.019,4.586-4.562,7.632-5.25
			c2.932-0.662-0.858-4.727-2.923-4.387c-0.494,0.081-0.979,0.206-1.459,0.349c0.088,0.088,0.118,0.229,0.003,0.34
			c-1.377,1.327-2.992,2.369-4.368,3.696c-0.233,0.225-0.593-0.12-0.363-0.35l0.067-0.067c-0.127,0.098-0.254,0.197-0.379,0.297
			c-1.187,1.765-3.094,3.194-4.702,4.489c-0.224,0.181-0.531-0.061-0.404-0.287c-0.214,0.127-0.435-0.142-0.333-0.347
			c0.12-0.24,0.24-0.481,0.361-0.721c-0.06,0.051-0.116,0.105-0.176,0.155c-1.616,1.631-3.003,3.485-4.488,5.233
			c-0.157,0.184-0.437,0.016-0.433-0.184c-0.387,0.45-0.78,0.895-1.177,1.337c0.008,0.064-0.01,0.132-0.07,0.192
			c-0.56,0.56-1.12,1.12-1.68,1.68c-0.23,0.229-0.591-0.119-0.363-0.35c0.155-0.157,0.304-0.321,0.457-0.48
			c0.639-0.776,1.29-1.545,1.955-2.302c-1.738,1.679-3.433,3.405-5.079,5.177c-8.438,2.824-15.644,9.705-19.65,17.5
			c-0.283,0.55,0.833,1.444,1.233,0.929c4.176-5.378,8.842-10.736,14.589-14.158c-0.137,0.158-0.276,0.315-0.413,0.474
			c-7.887,9.17-14.616,19.341-19.74,30.307c-5.527,11.826-9.674,24.663-12.062,37.496c-2.295,12.33-3.188,26.665,1.469,38.59
			c1.958,5.013,5.508,9.706,10.739,11.56c5.618,1.99,11.413-0.116,16.113-3.333c9.906-6.779,17.524-16.486,23.806-26.58
			c6.625-10.646,12.485-22.152,16.568-34.021C112.285,168.865,114.258,155.691,110.444,143.392z M104.366,177.793
			c0.24-0.177,0.509-0.317,0.815-0.402c0.313-0.087,0.455,0.397,0.142,0.484c-0.583,0.162-1.023,0.573-1.373,1.104
			c-0.678,1.9-1.414,3.784-2.196,5.648c-0.132,2.029-0.538,3.989-1.323,5.899c-0.055,0.135-0.231,0.147-0.343,0.096
			c-0.092-0.041-0.162-0.103-0.221-0.175c-0.362,1.302-0.856,2.554-1.452,3.775c-0.061,0.125-0.228,0.157-0.343,0.096
			c-0.149-0.079-0.192-0.244-0.223-0.392c-0.689,1.146-1.42,2.265-2.163,3.376c-1.715,3.228-3.483,6.347-5.224,9.324
			c-0.377,0.645-0.761,1.288-1.147,1.929c-1.111,2.505-2.687,4.813-4.33,7.038c0.103-0.068,0.202-0.141,0.31-0.203
			c0.186-0.108,0.435,0.061,0.375,0.278c-0.416,1.503-1.248,2.56-2.465,3.513c-0.185,0.145-0.417-0.086-0.375-0.278
			c0.067-0.311,0.149-0.613,0.237-0.91c-3.678,5.031-7.78,9.741-12.46,13.877c-4.099,3.623-9.103,7.654-14.653,8.585
			c-5.419,0.908-7.993-2.691-9.555-7.352c-2.828-8.435-3.091-17.752-2.14-26.721c-0.144,0.114-0.415,0.057-0.415-0.181
			c0.001-2.407,0.055-4.785,0.68-7.124c0.048-0.18,0.247-0.22,0.378-0.145c0.326-1.855,0.719-3.699,0.966-5.568
			c0.022-0.167,0.186-0.211,0.32-0.166c0.713-3.688,1.815-7.292,2.485-10.989c-0.091-0.046-0.154-0.139-0.116-0.271
			c0.074-0.261,0.163-0.516,0.257-0.77c0.026-0.079,0.053-0.159,0.079-0.238c0.008-0.024,0.021-0.04,0.032-0.059
			c0.435-1.102,0.988-2.158,1.312-3.301c0.029-0.103,0.108-0.16,0.194-0.177c0.606-1.586,1.134-3.2,1.486-4.864
			c0.06-0.281,0.496-0.222,0.496,0.058v0.159c1.059-2.904,2.196-5.771,3.406-8.585c1.358-3.159,2.866-6.254,4.497-9.284
			c0.002-0.008,0.004-0.016,0.006-0.025c-0.014-0.041-0.02-0.085-0.004-0.134c0.037-0.112,0.074-0.226,0.11-0.34
			c0.075-0.335,0.157-0.667,0.226-1.004c0.034-0.167,0.22-0.213,0.354-0.16c0.613-1.231,1.314-2.415,2.022-3.597
			c0.069-0.115,0.223-0.142,0.337-0.096c0.949-1.576,1.931-3.132,2.944-4.668c0.139-0.316,0.279-0.631,0.416-0.948
			c0.056-0.131,0.183-0.153,0.29-0.111c2.393-3.556,4.945-7.004,7.629-10.331c3.035-3.761,6.263-7.365,9.644-10.819
			c10.941-0.131,18.643,8.468,21.915,18.286C110.22,152.98,108.519,165.683,104.366,177.793z"/>
		<path fill="#F47373" d="M100.128,189.39c0.002,0.115-0.007,0.305,0.022,0.473c0.456-1.203,0.758-2.43,0.94-3.682
			c-0.438,1.006-0.889,2.006-1.349,2.999C99.888,189.096,100.124,189.183,100.128,189.39z"/>
		<path fill="#F47373" d="M89.446,109.507c0.049-0.001,0.094,0.015,0.135,0.041c0.555-0.481,1.115-0.957,1.686-1.417
			c0.112-0.17,0.227-0.339,0.323-0.516c0.093-0.17,0.287-0.149,0.395-0.044c0.656-0.498,1.332-0.97,2.046-1.392
			c0.116-0.069,0.237-0.029,0.311,0.052c0.611-0.485,1.215-0.979,1.787-1.511c-2.404,0.837-4.63,2.379-6.707,4.107
			c0.208-0.037,0.375,0.252,0.216,0.43C89.569,109.336,89.511,109.424,89.446,109.507z"/>
		<path fill="#F47373" d="M49.37,181.105c-0.103,0.685-0.228,1.365-0.363,2.043c0.42-1.447,0.86-2.89,1.32-4.325
			C50.023,179.589,49.668,180.336,49.37,181.105z"/>
	</g>
	<g>
		<path fill="#F47373" d="M168.866,149.471c-0.492,0.632-1.031,1.218-1.602,1.791c-0.066,0.066-0.156,0.077-0.237,0.058
			c-0.203,0.306-0.428,0.59-0.671,0.859c0.893-0.781,1.712-1.658,2.475-2.493c0.033-0.036,0.063-0.074,0.096-0.11
			C168.9,149.548,168.877,149.514,168.866,149.471z"/>
		<path fill="#F47373" d="M178.612,125.817c-1.884,2.378-2.923,5.462-4.309,8.147c-1.414,2.74-2.927,5.428-4.775,7.901
			c-1.99,2.663-10.255,13.463-12.655,6.313c-0.756-2.252-0.604-5.11,0.139-7.871c4.001-0.205,7.967-2.294,9.525-6.083
			c1.265-3.077-0.454-6.244-3.467-7.45c-1.226-0.491-2.422-0.437-3.537-0.047c-0.015,0.015-0.027,0.031-0.048,0.044
			c-1.655,1.001-3.247,2.123-4.299,3.753c-0.052,0.264-0.162,0.505-0.406,0.615c-0.095,0.043-0.196,0.028-0.271-0.02
			c-0.065,0.071-0.136,0.141-0.206,0.21c-1.11,1.67-2.046,3.667-2.68,5.783c-1.21-0.302-1.052,0.795-0.424,1.645
			c-0.497,2.284-0.621,4.642-0.218,6.831c0.192,0.386,0.402,0.761,0.672,1.112c0.512,0.664,0.556,1.54,0.886,2.299
			c0.077,0.178-0.065,0.296-0.219,0.302c0.193,0.335,0.4,0.663,0.633,0.977c1.835,2.476,4.841,4.43,7.999,4.361
			c0.904-0.02,1.747-0.234,2.538-0.575c0.009-0.062,0.04-0.122,0.102-0.169c1.251-0.94,2.502-1.874,3.271-3.268
			c0.081-0.147,0.266-0.153,0.379-0.066c0.592-0.613,1.145-1.241,1.637-1.951c0.134-0.193,0.472-0.15,0.472,0.119v0.105
			c0.477-0.463,0.897-0.974,1.255-1.545c0.057-0.091,0.191-0.297,0.332-0.547c-0.122,0.063-0.242,0.128-0.364,0.19
			c-0.223,0.113-0.47-0.106-0.351-0.339c0.35-0.683,0.736-1.324,1.169-1.933c0.349-0.543,0.761-1.015,1.222-1.479
			c0.229-0.231,0.589,0.117,0.363,0.35c-0.421,0.435-0.792,0.894-1.136,1.372c-0.045,0.158,0.023-0.034-0.014,0.212
			c-0.032,0.209-0.017,0.404-0.025,0.609c0.078-0.041,0.155-0.084,0.232-0.125c1.387-2.024,2.623-4.158,3.801-6.304
			c1.999-3.639,4.47-7.789,5.277-11.895C181.304,126.43,179.368,124.862,178.612,125.817z M161.627,132.103
			c0.098-0.088,0.218-0.168,0.343-0.243c-0.013,0.127-0.032,0.247-0.064,0.345c-0.425,1.281-1.296,2.533-2.3,3.435
			c-0.366,0.329-0.756,0.616-1.163,0.865C159.316,134.744,160.41,133.194,161.627,132.103z"/>
	</g>
	<g>
		<path fill="#F47373" d="M247.399,150.666c-0.009,0.001-0.018,0.002-0.026,0.004c5.742-0.265,11.486-0.499,17.233-0.655
			c-0.471-0.01-0.942-0.019-1.413-0.021h-10.081c-0.181,0-0.26-0.156-0.241-0.295c-2.405-0.16-4.842,0.016-7.212,0.463h1.732
			C247.726,150.162,247.71,150.62,247.399,150.666z"/>
		<path fill="#F47373" d="M292.156,148.098c-0.376-1.083-1.553-1.951-2.6-2.294c-4.021-1.319-8.322-1.321-12.514-1.334
			c-4.21-0.014-8.421,0.037-12.63,0.127c-8.456,0.181-16.906,0.547-25.354,0.955c-8.45,0.408-16.898,0.858-25.351,1.206
			c-4.308,0.177-8.618,0.329-12.929,0.434c-2.057,0.05-4.115,0.092-6.173,0.116c0.231-0.316,0.461-0.631,0.68-0.963
			c1.269-1.924-1.608-4.103-3.126-4.634c-1.123-0.393-2.245-0.791-3.368-1.189c0.705,0.376,1.422,0.722,2.213,0.911
			c0.316,0.076,0.19,0.564-0.125,0.488c-1.614-0.387-2.921-1.394-4.429-2.041c-0.101-0.043-0.133-0.135-0.123-0.227
			c-1.041-0.364-2.083-0.723-3.128-1.072c-0.078-0.005-0.158-0.013-0.234-0.013c-0.111,0-0.182-0.06-0.218-0.137
			c-1.411-0.468-2.827-0.919-4.251-1.336c-0.974-0.285-1.04-0.025-0.949-1.322c0.078-1.112,0.564-2.117,1.07-3.086
			c0.925-1.771,1.978-3.238,2.223-5.267c0.141-1.166-2.305-2.968-2.841-1.486c-0.953,2.637-3.266,4.478-4.145,7.141
			c-0.722,2.187-0.169,4.428,1.383,6.111c1.989,2.157,5.064,3.104,7.737,4.058c1.521,0.543,3.043,1.086,4.565,1.629
			c-0.594,0.667-1.22,1.309-1.903,1.924c-1.462,1.318,1.454,3.848,2.329,4.3c3.617,1.869,7.448,1.608,11.403,1.544
			c4.311-0.07,8.62-0.19,12.929-0.345c3.559-0.128,7.117-0.283,10.675-0.447c1.243-0.107,2.491-0.179,3.737-0.268
			c-0.11-0.145-0.053-0.411,0.183-0.411h6.347c3.381,0,6.767-0.158,10.132-0.504h-0.005c-0.281,0-0.354-0.42-0.076-0.494
			c3.937-1.039,8.149-1.361,12.175-0.682h10.742c0.072,0,0.126,0.027,0.166,0.066c1.896,0.044,3.792,0.04,5.663-0.252
			c0.031-0.083,0.103-0.149,0.22-0.15c2.134-0.02,4.252-0.313,6.385-0.336c0.325-0.003,0.333,0.501,0.009,0.504
			c-1.872,0.02-3.733,0.239-5.603,0.308c-0.014,0.006-0.026,0.014-0.042,0.018c-0.442,0.091-0.885,0.161-1.329,0.219
			c2.179-0.031,4.358-0.047,6.538-0.046c4.345,0.002,8.713,0.326,13.051,0.203C292.313,149.994,292.411,148.834,292.156,148.098z"/>
	</g>
	<g>
		<path fill="#F47373" d="M88.029,25.398c0.327-0.61,0.665-1.214,1.001-1.818c-0.361,0.55-0.719,1.102-1.072,1.655
			C87.999,25.273,88.027,25.328,88.029,25.398z"/>
		<path fill="#F47373" d="M65.129,74.159c0.692-1.881,1.349-3.774,2.008-5.667c-0.93,2.383-1.848,4.768-2.762,7.151
			c-1.147,2.991-2.27,6.001-3.394,9.014c0.092,0.027,0.167,0.101,0.167,0.225v0.612c0.593-1.2,1.165-2.412,1.63-3.668
			c0.212-0.573,0.323-1.257,0.605-1.793c0.256-0.485,0.658-0.918,0.926-1.408c1.037-1.897,1.718-4.044,2.122-6.196
			c-0.293,0.635-0.571,1.277-0.839,1.923c-0.353,0.96-0.714,1.918-1.092,2.869c-0.116,0.293-0.595,0.187-0.488-0.125
			C64.35,76.104,64.727,75.126,65.129,74.159z"/>
		<path fill="#F47373" d="M83.078,101.605c-0.164,0.017-0.251-0.126-0.246-0.264c-0.799,0.148-1.592,0.339-2.375,0.59
			c-0.157,0.05-0.31-0.091-0.325-0.237c-1.55,0.382-3.11,0.725-4.652,1.141c0.153,0.112,0.172,0.385-0.063,0.44
			c-0.462,0.109-0.898,0.269-1.324,0.448c3.488-0.863,7.016-1.624,10.568-2.283C84.133,101.495,83.606,101.55,83.078,101.605z"/>
		<path fill="#F47373" d="M73.25,103.235c0.535-0.124,1.071-0.24,1.609-0.353c-0.047-0.041-0.08-0.095-0.094-0.154
			C74.251,102.875,73.746,103.043,73.25,103.235z"/>
		<path fill="#F47373" d="M180.143,120.865c-8.079-14.743-26.389-21.56-41.892-24.947c-18.42-4.025-37.521-3.07-55.989,0.124
			c-6.787,1.174-13.512,2.698-20.118,4.639c8.681-21.884,15.784-44.686,27.605-65.005c5.935-1.224,11.792-2.924,17.533-5.157
			c4.251-1.653,8.405-3.557,12.424-5.713c3.544-1.901,7.399-3.942,9.894-7.199c5.069-6.617,0.796-15.212-6.826-17.121
			c-7.79-1.951-15.316,2.268-20.885,7.366c-3.522,3.224-6.651,6.941-9.501,10.855c-0.39,0.994-0.915,1.924-1.646,2.735
			c-0.869,1.72-1.867,3.375-2.745,5.1c-0.065,0.127-0.207,0.148-0.319,0.1c-0.104,0.308-0.219,0.612-0.353,0.908
			c-0.042,0.093-0.128,0.129-0.215,0.125c-0.038,0.071-0.074,0.144-0.121,0.211c-0.185,0.263-0.627,0.019-0.44-0.247
			c0.144-0.204,0.237-0.429,0.329-0.656c0.002-0.017,0.006-0.033,0.009-0.049c-0.194,0.312-0.389,0.623-0.58,0.935
			c-1.039,1.688-2.039,3.397-3.011,5.12c-5.003,1.062-10.05,1.823-15.057,2.28c-4.669,0.427-9.347,0.362-14.022,0.058
			c-1.752-0.114-0.201,2.159,0.913,2.255c8.704,0.745,17.371,0.618,25.908-0.457c-3.435,6.494-6.475,13.194-9.315,19.981
			c0.123,0.052,0.216,0.193,0.146,0.352c-0.236,0.529-0.456,1.064-0.68,1.597c-0.121,0.296-0.244,0.591-0.374,0.882
			c-0.203,0.5-0.396,1.004-0.591,1.506c-0.115,0.443-0.235,0.886-0.347,1.33c-0.033,0.131-0.131,0.183-0.231,0.181
			c-0.936,2.508-1.804,5.042-2.687,7.571c0.129,0.026,0.248,0.16,0.229,0.313c-0.327,2.7-1.078,5.473-2.358,7.886
			c-0.262,0.494-0.615,0.929-0.887,1.411c-0.415,0.737-0.603,1.647-0.915,2.432c-0.561,1.41-1.236,2.769-1.913,4.126
			c-0.093,0.187-0.353,0.148-0.44-0.009c-0.385,1.321-0.96,2.91-1.561,2.969c-0.687,1.827-1.382,3.651-2.085,5.472
			c0.053,0.043,0.089,0.103,0.086,0.177c-0.013,0.311-0.247,1.543-0.335,2.329c0.076,0.297,0.194,0.649,0.127,0.949
			c-0.033,0.148-0.234,0.249-0.368,0.157c-0.216-0.148-0.298-0.453-0.309-0.824c-0.09,0.003-0.182-0.053-0.237-0.134
			c-0.747,1.895-1.504,3.784-2.288,5.662c-7.322,2.677-14.27,6.132-21.292,9.525c-7.121,3.441-14.243,7.078-20.364,12.15
			C6.819,129.448-1.63,137.22,0.274,144.869c1.885,7.572,10.885,9.299,17.461,7.852c6.43-1.414,12.478-4.386,17.595-8.513
			c10.423-8.408,16.939-20.399,22.224-32.474c0.514-1.175,1.018-2.356,1.518-3.54c1.7-0.621,3.416-1.212,5.162-1.746
			c2.501-0.765,5.035-1.476,7.588-2.142c0.23-0.127,0.46-0.255,0.691-0.379c-0.489,0.117-0.978,0.233-1.466,0.355
			c-0.272,0.068-0.456-0.311-0.202-0.457c1.797-1.038,3.733-1.678,5.772-2.043c0.127-0.023,0.247,0.059,0.301,0.162
			c1.581-0.384,3.171-0.732,4.739-1.17c0.16-0.045,0.295,0.086,0.32,0.223c1.788-0.4,3.615-0.556,5.459-0.57
			c0.138-0.001,0.215,0.089,0.238,0.193c5.063-0.527,10.124-1.077,15.153-1.863c0.189-0.03,0.314,0.13,0.319,0.274
			c0.803-0.059,1.605-0.103,2.408-0.15c0.97-0.099,1.937-0.223,2.905-0.357c-0.181-0.13-0.083-0.451,0.148-0.449
			c2.571,0.014,5.118,0.275,7.665,0.552c0.632,0.008,1.265,0.008,1.895,0.025c9.373,0.25,18.788,1.462,27.851,3.895
			c8.111,2.177,16.454,5.031,23.272,10.081c3.255,2.411,6.097,5.27,8.387,8.614C178.489,122.426,181.25,122.886,180.143,120.865z
			 M98.364,22.574c4.876-6.532,10.778-13.97,18.903-16.452c1.832-0.56,3.866-0.925,5.783-0.671c1.998,0.265,2.773,1.205,2.802,3.24
			c0.06,4.236-3.362,7.525-6.616,9.696c-8.021,5.351-17.009,9.342-26.359,12.153C94.604,27.831,96.426,25.172,98.364,22.574z
			 M48.662,114.617C43,126.104,35.44,137.52,23.871,143.726c-2.954,1.584-6.099,2.82-9.367,3.577
			c-1.892,0.438-6.617,1.519-8.025-0.428c-1.066-1.475,0.115-4.321,0.817-5.687c0.517-1.005,1.139-1.967,1.809-2.893
			c0.147-0.559,0.381-1.085,0.746-1.295c0.07-0.04,0.169-0.05,0.242-0.008c0.254-0.321,0.511-0.639,0.769-0.952
			c0.138-0.206,0.277-0.413,0.418-0.617c0.02-0.029,0.04-0.059,0.06-0.088c0.336-0.49,0.666-0.983,0.946-1.509
			c0.008-0.014,0.023-0.022,0.034-0.034c1.206-2.152,3.15-3.867,5.045-5.394c0.103-0.083,0.25-0.078,0.345-0.011
			c0.037-0.037,0.075-0.073,0.112-0.11c0.17-0.219,0.409-0.412,0.614-0.601c0.179-0.165,0.363-0.319,0.552-0.467
			c0.003-0.034,0.014-0.067,0.029-0.098c-0.018,0.008-0.036,0.016-0.055,0.023c-0.27,0.11-0.442-0.317-0.202-0.457
			c0.732-0.427,1.484-0.805,2.247-1.159c0.007-0.07,0.038-0.139,0.105-0.185c2.92-2.006,6.175-3.361,9.435-4.698
			c0.292-0.187,0.588-0.368,0.889-0.54c0.015-0.053,0.044-0.103,0.093-0.139c1.234-0.924,2.48-1.781,3.863-2.443
			c0.175-0.119,0.361-0.217,0.565-0.271c0.322-0.086,0.434,0.36,0.142,0.484c-0.155,0.066-0.299,0.146-0.45,0.217
			c-0.004,0.002-0.007,0.005-0.011,0.007c0.423-0.097,0.847-0.189,1.254-0.346c0.48-0.502,0.924-1.026,1.407-1.513
			c-0.084,0.041-0.17,0.077-0.248,0.089c-0.061,0.009-0.102,0.039-0.128,0.063c-0.047,0.096-0.143,0.168-0.277,0.14
			c-0.014-0.003-0.028-0.006-0.041-0.009c-0.133-0.027-0.216-0.18-0.181-0.307c0.136-0.508,1.526-0.808,1.961-0.853
			c0.27-0.027,0.32,0.336,0.135,0.467c-0.649,0.462-1.16,1.045-1.678,1.63c0.149-0.034,0.296-0.072,0.445-0.105
			c0.296-0.103,0.596-0.194,0.904-0.269c0.361-0.173,0.722-0.348,1.082-0.521c3.23-1.551,6.446-3.075,9.693-4.516
			C49.539,112.81,49.106,113.716,48.662,114.617z"/>
		<path fill="#F47373" d="M27.581,122.82c0.35-0.288,0.704-0.57,1.062-0.844c-1.724,0.733-3.427,1.508-5.057,2.425
			c0.092-0.033,0.183-0.071,0.275-0.103c0.098-0.034,0.175-0.007,0.229,0.046c0.036-0.015,0.071-0.031,0.107-0.046
			c0.222-0.09,0.353,0.148,0.29,0.329C25.506,124.004,26.538,123.404,27.581,122.82z"/>
		<path fill="#F47373" d="M20.141,126.923c-0.002,0.03-0.008,0.061-0.021,0.092c-0.145,0.344-0.327,0.423-0.633,0.45
			c-0.398,0.293-0.758,0.627-1.116,0.977c-0.126,0.123-0.482,0.602-0.705,0.622c-0.122,0.011-0.21-0.005-0.275-0.04
			c-1.12,0.913-2.239,1.895-3.197,3.002c0.108,0.008,0.203,0.084,0.235,0.182c1.678-1.609,3.472-3.098,5.361-4.466
			c1.372-0.994,2.782-1.927,4.218-2.818C22.669,125.487,21.361,126.135,20.141,126.923z"/>
	</g>
	<g>
		<path fill="#F47373" d="M152.403,187.483c0.058,0.035,0.101,0.096,0.123,0.164c0.535-1.02,1.052-2.05,1.568-3.081
			c0.002-0.004,0.006-0.006,0.008-0.011c0.009-0.079,0.024-0.155,0.035-0.232c-0.198,0.315-0.405,0.625-0.621,0.931
			C153.194,186.016,152.83,186.761,152.403,187.483z"/>
		<path fill="#F47373" d="M161.701,167.382c-0.788-1.881-1.858-3.7-3.23-5.409c-0.888-1.106-1.851-2.134-2.875-3.094
			c-0.113-0.052-0.221-0.111-0.338-0.156c-0.137-0.053-0.182-0.183-0.166-0.299c-4.249-3.82-9.475-6.513-14.785-8.564
			c-0.411-0.159-0.825-0.312-1.239-0.464c1.028-0.776,2.066-1.539,3.119-2.281c0.26-0.183,0.525-0.358,0.786-0.54
			c0.483-0.561,0.895-1.179,1.412-1.713c0.195-0.201,0.562,0.056,0.401,0.298c-0.066,0.1-0.13,0.201-0.194,0.302
			c1.871-1.278,3.755-2.538,5.654-3.77c2.766-1.794,5.241-3.857,7.916-5.757c0.825-0.586-0.733-1.856-1.449-1.522
			c-3.229,1.507-6.453,2.792-9.542,4.607c-2.918,1.715-5.769,3.519-8.54,5.463c-1.503,1.055-2.982,2.149-4.435,3.276
			c-0.826-0.251-1.657-0.487-2.49-0.714c0.001,0.132-0.082,0.267-0.238,0.258c-0.023-0.001-0.044-0.008-0.067-0.01
			c0,0.001,0,0.001,0,0.002c-0.012-0.002-0.025-0.005-0.037-0.007c-0.218-0.023-0.429-0.071-0.637-0.127
			c-0.335-0.067-0.671-0.134-1.006-0.201c-0.152-0.03-0.202-0.171-0.174-0.295c0.005-0.044,0.018-0.084,0.043-0.118
			c-0.236-0.07-0.47-0.149-0.706-0.223c-1.754-0.419-3.52-0.787-5.295-1.105c0.89-0.608,1.764-1.241,2.613-1.91
			c2.23-1.758-1.447-4.95-3.336-4.994c-3.623-0.084-7.286-0.228-10.924-0.184c-2.734,0.033-0.317,3.398,1.407,3.477
			c1.081,0.049,2.129,0.126,3.163,0.23c-1.339,0.812-2.699,1.591-4.104,2.311c-2.762,1.415,1.906,4.994,3.42,5.12
			c4.688,0.388,9.327,1.109,13.891,2.182c-1.953,1.714-3.834,3.508-5.612,5.404c-8.432,8.993-19.431,24.022-9.543,35.671
			c9.068,10.682,27.101,10.441,38.088,2.994c7.946-5.386,11.9-14.59,10.434-23.337C162.636,170.581,162.154,168.986,161.701,167.382
			z M157.072,176.667c-0.012,0.047-0.024,0.095-0.036,0.142c-0.175,1.034-0.433,2.06-0.774,3.068
			c-0.292,1.102-0.62,2.194-1.057,3.257c-0.05,0.122-0.193,0.145-0.308,0.103c-0.181,0.571-0.309,1.158-0.332,1.785
			c-0.006,0.163-0.135,0.246-0.261,0.247c-0.889,1.775-1.784,3.548-2.796,5.257c-0.117,0.198-0.497,0.144-0.472-0.119
			c0.049-0.513,0.206-1.008,0.407-1.488c-0.074,0.064-0.199,0.065-0.278,0.023c-0.018-0.009-0.036-0.019-0.053-0.028
			c-0.09-0.048-0.159-0.182-0.121-0.283c0.111-0.29,0.367-0.529,0.64-0.74c0.123-0.264,0.285-0.552,0.43-0.795
			c-0.449,0.507-0.923,0.996-1.424,1.465c-3.136,2.93-7.034,4.863-11.154,5.968c-0.838,0.328-1.709,0.523-2.595,0.586
			c-0.76,0.139-1.522,0.253-2.286,0.34c-5.662,0.646-12.404,0.002-16.501-4.422c-3.918-4.23-3.652-9.351-1.839-14.179
			c-0.112-0.034-0.198-0.138-0.165-0.291c0.395-1.822,1.103-3.494,2.041-5.101c0.108-0.186,0.357-0.144,0.443,0.007
			c0.608-1.805,1.153-3.635,1.909-5.384c0.101-0.233,0.476-0.12,0.472,0.119c-0.009,0.473-0.043,0.947-0.1,1.418
			c0.764-1.48,1.719-2.775,3.184-3.771c1.236-1.578,2.539-3.105,3.909-4.573c2.145-2.3,4.436-4.447,6.832-6.473
			c0.517,0.155,1.034,0.305,1.549,0.47c5.116,1.637,10.241,3.67,14.492,7.029c5.069,4.005,6.993,9.775,6.357,15.44
			c0.003,0.012,0.005,0.025,0.008,0.037c0.023,0.026,0.042,0.058,0.05,0.099c0.031,0.155,0.066,0.311,0.092,0.467
			C157.367,176.539,157.217,176.667,157.072,176.667z"/>
		<path fill="#F47373" d="M119.831,169.906c0.229-0.66,0.393-1.344,0.493-2.037c-0.337,0.918-0.641,1.848-0.947,2.777
			C119.525,170.397,119.679,170.152,119.831,169.906z"/>
	</g>
</g>
</svg>
